
<svg xmlns="http://www.w3.org/2000/svg" xmlns:xlink="http://www.w3.org/1999/xlink" x="0px" y="0px"
	 viewBox="0 0 50 50" xml:space="preserve">
	 <style>
		path { fill: #1a71b9; }
		@media (prefers-color-scheme: dark) {
			path { fill: #ebebef; }
		}
	</style>
	<path d="M25,1.7C12.1,1.7,1.7,12.1,1.7,25c0,8.4,4.5,15.8,11.2,19.9L25,32.8l0,0l0,0l9.1,9.1c0,0,0,0,0,0l3,3
		c6.7-4.1,11.2-11.5,11.2-20C48.3,12.1,37.9,1.7,25,1.7z M12.6,39.6C8.4,36.1,5.8,30.8,5.8,25c0-3.3,0.8-6.3,2.3-9L22.1,30L12.6,39.6
		z M10.4,12.6c3.5-4.1,8.8-6.8,14.6-6.8c5.8,0,11.1,2.6,14.6,6.8L25,27.2L10.4,12.6z M37.4,39.6L27.8,30l14.1-14.1
		c1.5,2.7,2.3,5.8,2.3,9.1C44.2,30.9,41.5,36.1,37.4,39.6z"/>
	
</svg>
